/* XPM */
static char *result[] = {
/* columns rows colors chars-per-pixel */
"32 32 100 2 ",
"   c #DFAA1F",
".  c #E4AF1F",
"X  c #D6A621",
"o  c #D7A923",
"O  c #DEAB21",
"+  c #D6A62C",
"@  c #DDB529",
"#  c #CEA537",
"$  c #D3A836",
"%  c #DBAD31",
"&  c #D8B231",
"*  c #E3AE21",
"=  c #E5B223",
"-  c #EDB521",
";  c #E3B827",
":  c #EEB923",
">  c #E4BB29",
",  c #E9BE29",
"<  c #F0B721",
"1  c #F2B921",
"2  c #E5B534",
"3  c #E0BE39",
"4  c #EBC22C",
"5  c #F4C226",
"6  c #F3C62A",
"7  c #F6CB2C",
"8  c #E6C435",
"9  c #EBC731",
"0  c #ECCB33",
"q  c #E1C23E",
"w  c #EDCD3E",
"e  c #F4CE32",
"r  c #EFD33E",
"t  c #F6D334",
"y  c #F9D533",
"u  c #FBDA36",
"i  c #F2D23A",
"p  c #F5D93E",
"a  c #F9D939",
"s  c #FEE13A",
"d  c #B39B5F",
"f  c #BFA655",
"g  c #BBA55C",
"h  c #AD9967",
"j  c #B29D62",
"k  c #A69974",
"l  c #A1977F",
"z  c #A69A7A",
"x  c #B4A36C",
"c  c #B8A868",
"v  c #ACA27B",
"b  c #B6A372",
"n  c #B9AE75",
"m  c #B4AC7D",
"M  c #BCB37A",
"N  c #C09F4C",
"B  c #C7AA4A",
"V  c #CFB54E",
"C  c #D4B444",
"Z  c #C1A452",
"A  c #C3AB53",
"S  c #CABD6E",
"D  c #C7BA71",
"F  c #C8BB71",
"G  c #C0B579",
"H  c #DDC64E",
"J  c #D9C65D",
"K  c #DECB5A",
"L  c #E4C742",
"P  c #E7CC47",
"I  c #EACD44",
"U  c #E5CB4D",
"Y  c #EDD44D",
"T  c #F2D742",
"R  c #F2D946",
"E  c #F9DE41",
"W  c #E2CE56",
"Q  c #E8D253",
"!  c #CFC06B",
"~  c #D4C465",
"^  c #D8C761",
"/  c #D1C269",
"(  c #9E9785",
")  c #9C9689",
"_  c #9E998C",
"`  c #949597",
"'  c #989692",
"]  c #9C9A95",
"[  c #94959A",
"{  c #979899",
"}  c #989898",
"|  c #A09782",
" . c #A19F94",
".. c #AEA782",
"X. c #AEA986",
"o. c #A5A28C",
"O. c #A9A58D",
"+. c #AEA988",
"@. c #B3AC84",
"#. c #A3A191",
/* pixels */
"[ [ [ [ [ [ [ [ [ [ [ [ [ [ [ [ [ [ ` [ [ [ [ [ [ [ [ [ [ [ [ [ ",
"[ [ [ [ [ [ [ [ [ [ [ [ [ [ [ [ [ [ [ [ | n / / F +.} [ [ [ [ [ ",
"[ [ [ [ [ [ [ [ [ [ [ [ [ [ [ [ [ [ ` x L t 6 4 9 w ^ O.[ [ [ [ ",
"[ [ [ [ [ [ [ [ [ ` [ [ [ [ [ [ ` ` h 9 7 1 < < < - , P @.[ [ [ ",
"[ [ [ [ [ [ [ [ [ [ [ [ [ [ [ [ [ l & y 1 1 1 1 1 1 - = U  .[ [ ",
"[ [ [ [ [ [ [ [ [ [ [ [ [ [ [ ` ` g 9 6 < 1 < - < 1 < - 9 M [ [ ",
"[ [ [ [ ` [ [ [ [ [ [ [ [ [ [ [ ` f e 5 1 1 : Z # - 1 < , J } [ ",
"[ [ [ [ [ [ [ [ [ [ [ [ [ [ [ [ ` # e 1 1 1 > _ k O 1 1 : U ] [ ",
"[ [ [ [ [ [ [ [ [ [ [ [ [ [ [ [ [ B a 1 1 1 C ] j = 1 1 < I #.[ ",
"[ [ [ [ [ [ [ [ [ [ [ ` [ [ [ [ [ g a 1 1 1 1 2 % - 1 1 < w o.[ ",
"[ [ [ [ [ [ [ [ [ [ [ { [ [ [ [ [ z 0 7 1 1 1 1 1 1 1 1 1 I #.[ ",
"` [ [ [ [ [ } v S ^ K W J S X.} [ ' A y 1 1 1 1 1 1 1 < 6 ~ { [ ",
"[ [ [ [ ` v H p 0 4 ; ; > 9 r K X.[ ) V t 1 1 1 1 - : e K o.[ [ ",
"[ [ [ ` c r e ; = - < < - . @ 4 T G [  .D Y i t e 0 I !  .[ [ [ ",
"[ [ [ x r t - < < 1 1 1 1 1 1 . > R G [ [ ] @.@.m @.#.[ [ [ [ [ ",
"[ [ ( q y 1 1 1 : 1 1 1 1 1 1 1 . > R +.[ [ [ [ [ [ [ [ [ [ [ [ ",
"[ } d a 1 1 1 1 1 1 1 1 1 1 1 1 - X 0 W } [ [ [ [ [ [ [ [ [ [ [ ",
"[ ' C y 1 1 1 1 1 1 < 1 1 1 1 1 1 O @ E @.[ [ [ [ [ [ [ [ [ [ [ ",
"[ | q 7 1 1 1 1 1 < $ O < < 1 1 1 * o a / [ [ [ [ [ [ [ [ [ [ [ ",
"[ | 8 7 1 1 1 1 1 C ) h X < 1 1 1 * X u W { [ [ [ [ [ [ [ [ [ [ ",
"[ | 3 7 1 1 1 1 : b [ | + 1 1 1 1 - O y Y ] [ [ [ [ [ [ [ [ ` [ ",
"[ ) 3 7 1 1 1 1 1 2 b N - 1 1 1 < * - u R ] [ [ [ [ [ [ [ [ [ [ ",
"[ ' C 7 1 1 1 1 1 1 : = 1 1 1 1 < O : u Q } { [ [ [ [ [ [ [ [ [ ",
"[ [ Z t 1 1 1 1 1 1 1 1 1 1 1 1 -   7 s / { [ [ [ [ [ [ [ [ [ [ ",
"[ [ | w 7 1 1 1 1 1 1 1 1 1 1 1 * - y E  .[ [ [ [ [ [ [ [ [ [ [ ",
"[ [ [ A y 6 1 1 1 1 1 1 1 1 1 . * t s S [ [ [ [ [ [ [ [ [ [ [ [ ",
"[ [ [  .C a 7 1 < 1 1 1 1 1 = @ e a ^  .[ [ [ [ [ [ [ [ [ [ [ [ ",
"[ [ [ [ | V y y 5 5 1 - = = 4 y R F } [ [ [ [ [ [ [ [ [ [ [ [ [ ",
"[ [ ` [ [ ' b H p a y 0 i r W D O.[ [ [ [ [ [ ` ` [ [ [ [ [ [ [ ",
"` ` ` ` [ } [ ' o.m M M ..o.} [ ` ` ` ` ` ` ` ` ` ` ` ` [ [ [ [ ",
"` ` ` ` ` ` ` [ [ [ [ ` [ [ [ [ } ` ` ` ` ` [ ` ` ` ` ` [ [ [ [ ",
"` ` ` ` { [ { } [ [ [ [ [ [ [ [ ` ` ` ` ` ` ` ` ` ` ` ` [ [ [ [ "
};
