/* XPM */
static char *result[] = {
/* columns rows colors chars-per-pixel */
"32 32 122 2 ",
"   c #332117",
".  c #342218",
"X  c #332927",
"o  c #3B2C25",
"O  c #362C2A",
"+  c #3B302E",
"@  c #473227",
"#  c #45322A",
"$  c #4C352A",
"%  c #4F382B",
"&  c #61412F",
"*  c #634634",
"=  c #684733",
"-  c #754F36",
";  c #7B5135",
":  c #544946",
">  c #574D49",
",  c #5F5551",
"<  c #664D42",
"1  c #694E42",
"2  c #67534C",
"3  c #69554D",
"4  c #745443",
"5  c #7F5B46",
"6  c #635955",
"7  c #6C5951",
"8  c #695E5A",
"9  c #776055",
"0  c #835537",
"q  c #8D5B38",
"w  c #9F633A",
"e  c #A1663D",
"r  c #AB6C3F",
"t  c #B46E3D",
"y  c #B4713F",
"u  c #805C47",
"i  c #8D654A",
"p  c #96684A",
"a  c #A56D46",
"s  c #AB7145",
"d  c #AE784E",
"f  c #BF7D49",
"g  c #826E64",
"h  c #847B77",
"j  c #877E7A",
"k  c #C07D49",
"l  c #B4845C",
"z  c #8A817C",
"x  c #BD8C60",
"c  c #C4834D",
"v  c #C9854B",
"b  c #D78646",
"n  c #D78847",
"m  c #D48749",
"M  c #D78A49",
"N  c #D98C4B",
"B  c #DD914E",
"V  c #C18351",
"C  c #CE8B52",
"Z  c #C48C5C",
"A  c #D48D51",
"S  c #D39157",
"D  c #DE9454",
"F  c #DF9857",
"G  c #DD965A",
"H  c #DF995A",
"J  c #E09653",
"K  c #E39A56",
"L  c #E09759",
"P  c #E29D5C",
"I  c #E8A35F",
"U  c #C18E61",
"Y  c #CA9563",
"T  c #CB936C",
"R  c #D79764",
"E  c #D59960",
"W  c #DDA268",
"Q  c #E6A564",
"!  c #E8A666",
"~  c #E8A867",
"^  c #E7A868",
"/  c #E9AA69",
"(  c #8F8581",
")  c #948B86",
"_  c #918B8A",
"`  c #9A928E",
"'  c #949597",
"]  c #94959A",
"[  c #9B9B9E",
"{  c #BF9E88",
"}  c #A29A95",
"|  c #9E9EA0",
" . c #A09FA4",
".. c #A3A2A5",
"X. c #ABA9AA",
"o. c #B3AFAD",
"O. c #B6B1AF",
"+. c #BCB3AE",
"@. c #B5B3B2",
"#. c #BAB5B3",
"$. c #BCB9B7",
"%. c #BDBAB9",
"&. c #C8AC99",
"*. c #D3B097",
"=. c #CBBAAE",
"-. c #C0B6B2",
";. c #C4BBB4",
":. c #C8BEB7",
">. c #C1BEBD",
",. c #C5C1BD",
"<. c #CAC3BE",
"1. c #D3C2B4",
"2. c #D2C5BA",
"3. c #D4C8BE",
"4. c #C6C3C0",
"5. c #CAC6C2",
"6. c #CDC9C4",
"7. c #D2CCC5",
"8. c #D4CFC9",
"9. c #D5D1CB",
"0. c #D9D5CF",
"q. c #D8D6D2",
/* pixels */
"] ] ] ] ] ' ] ] ] ] ] X.$.<.O.7.9.8.6.%...] ] ] ] ] ] ] ] ] ] ] ",
"] ] ] ] ] ] ] ] ] X...9.9.9.5.7.9.8.9.q.9.$.[ ] ] ] ] ] ] ] ] ' ",
"] ] ] ] ] ] ] [ <.q.%.,.6.+.` z z ` o.6.8.9.5.| ] ] ] ] ] ] ] ] ",
"] ] ] ] ] ] [ <.9.9.<.) > O X X . % * z :.6.q.6.[ ] ] ] ] ] ] ] ",
"] ] ] ] ] ] X.#.8.,.6 X X X X * y D D H E &.8.9.4.] ] ] ] ] ' ] ",
"] ] ] ] ] @.0.6.@.: X X X X ; B b I H P / N *.8.7.| ] ] ] ] ] ] ",
"] ] ] ] [ 7.9.6.8 X X X X & B B M I K H / F G =.@...] ] ] ] ] ' ",
"] ] ] ] X.0.9.` O X X X o y D B n ~ F H ^ F ^ T 7.q.X.] ' ' ] ] ",
"] ] ] ] #.8.6., X X X X * N D B N / D Q ! G ! N 1.8.%.] ] ] ] ] ",
"] ] ] ' | $.O.+ X X X X w M D B A ^ D P ^ F Q c { 9.5.] ] ] ] ] ",
"] ] ] ] ,.9.} X X X X X c M J B B / H H / f 5 1 g 8.7.] ] ] ] ] ",
"] ] ] ] 5.9.) X X X X O D N B c f ~ H Z Y F ! G R 8.5.| ] ] ] ] ",
"] ] ] ] 5.8.z X X X X # K M B d s Q S l l A / K R %.>.] ] ] ] ] ",
"] ] ] ] ,.8.z X X X X @ K M d < 2 7 3 3 9 V ~ P G 6.8.| ] ] ] ] ",
"' ] ] ] X.>.h X X X X $ K N N s o     # U G ! P G 6.8.| ' ] ] ] ",
"] ] ] ] <.9.z X X X X % K N D s o     # x F ! P G 3.8.| ] ] ' ] ",
"] ] ] ] 6.8.j + X X X % I M l - < 2 3 6 9 V / P G 3.6.| ] ] ] ] ",
"] ] ] ] 4.9.h + X X X % J M M r a W S l l S / I G ;.@.[ ] ] ] ] ",
"] ] ] ] X.>.8 + X X X % I b J l f / H Z Y D ^ P L +.X.] ] ] ] ] ",
"] ] ] ] %.6.h X X X . % D t v D D / H P ~ F ^ H L 2.9...] ] ] ] ",
"] ] ] ] 6.9.j X X X X % C % = D N / H H ^ H ! I F 2.9...] ] ] ] ",
"] ] ] ] 4.8.h X X X X % C - 0 D N / H I / D ~ W D 2.9...] ] ] ] ",
"] ] ] ] 4.8.z X X X X $ N r e D M ~ H P ^ D ~ P D 2.8...] ] ' ] ",
"] ] ] ] ..4.9 X X X X @ J e v J M Q H P / D ~ H D +.X.] ] ] ] ] ",
"] ] ] [ >.8.j X X X X $ K n D D N P L P / D / P G 2.7. .] ] ] ] ",
"] ] ] ] 6.q.j X X X X @ K M D B N K G P / D ! P G 2.q...] | ] ] ",
"] [ ] ] 4.9.j X X X X @ F M B B N K A P / D Q P D 2.9. .] ] ] ] ",
"] ] ] [ 4.8.z X X X X @ J M B B b K N P / D Q P L :.:.| ] ] ] ] ",
"] ' ] ] X.>.j X X X X @ K b J D n K N J / L Q P G -.@.| ] ] ] ] ",
"' ' ' ' @.6.( X X X X @ K b J J N K N N ! k i u 4 ,.8.| ] ] ' ' ",
"' ' ' ] 4.8.( X X X X @ K b D B N K N N K J R d p :.8.| ] ] ' ' ",
"' ' ] ] 4.6._ X X X X O - q s m n K n N K N ! L L 6.8.| _ ' ] ' "
};
