/* XPM */
static char *result[] = {
/* columns rows colors chars-per-pixel */
"32 32 218 2 ",
"   c #2F1810",
".  c #3A1906",
"X  c #3D2919",
"o  c #392409",
"O  c #401E1C",
"+  c #4B2F21",
"@  c #563729",
"#  c #443025",
"$  c #4D2911",
"%  c #7A4817",
"&  c #785839",
"*  c #6C4B33",
"=  c #785448",
"-  c #88541B",
";  c #885329",
":  c #93582D",
">  c #825035",
",  c #965E39",
"<  c #956337",
"1  c #9A6523",
"2  c #A8753F",
"3  c #A86B31",
"4  c #D77B3D",
"5  c #865949",
"6  c #8B644C",
"7  c #926949",
"8  c #93664F",
"9  c #8E6858",
"0  c #9D6B53",
"q  c #977458",
"w  c #A66D41",
"e  c #AB774B",
"r  c #B57849",
"t  c #A86F51",
"y  c #AB7654",
"u  c #A67759",
"i  c #BA7E53",
"p  c #A47669",
"a  c #C77B46",
"s  c #D57F48",
"d  c #C37F52",
"f  c #B9813C",
"g  c #D8813A",
"h  c #BC8545",
"j  c #BB835B",
"k  c #BF945F",
"l  c #BA8665",
"z  c #B79169",
"x  c #B28C73",
"c  c #BE9B7C",
"v  c #CC8342",
"b  c #C3844F",
"n  c #CB824C",
"m  c #C58A4B",
"M  c #CB8949",
"N  c #D48143",
"B  c #DB8444",
"V  c #D4834A",
"C  c #D9814B",
"Z  c #D38B4C",
"A  c #DB8B4B",
"S  c #D48E46",
"D  c #D5954F",
"F  c #D59849",
"G  c #C48454",
"H  c #C28855",
"J  c #CC8B54",
"K  c #C48B5F",
"L  c #C78557",
"P  c #D48553",
"I  c #D38D53",
"U  c #DC8C54",
"Y  c #DA8D5C",
"T  c #CD9159",
"R  c #D39154",
"E  c #DB9454",
"W  c #D69B52",
"Q  c #DB9C55",
"!  c #D5945C",
"~  c #DE935C",
"^  c #DC9A5C",
"/  c #D09A5E",
"(  c #CC9B4E",
")  c #E4874E",
"_  c #EA9D4F",
"`  c #E39D54",
"'  c #E3955C",
"]  c #E39D5C",
"[  c #E89957",
"{  c #DDA358",
"}  c #E3A45A",
"|  c #E7A859",
" . c #EBB15F",
".. c #CB8C62",
"X. c #C48B66",
"o. c #D18965",
"O. c #CE9269",
"+. c #CC9565",
"@. c #D49463",
"#. c #DE9D62",
"$. c #DD9C6A",
"%. c #D69769",
"&. c #CA9474",
"*. c #CC9B73",
"=. c #C79877",
"-. c #D79973",
";. c #E19D64",
":. c #EB9D63",
">. c #E19D6A",
",. c #EC9B67",
"<. c #F39D64",
"1. c #DCA366",
"2. c #CDA17B",
"3. c #D7A677",
"4. c #CDA46C",
"5. c #E6A464",
"6. c #EBA464",
"7. c #EBAB63",
"8. c #E4A36A",
"9. c #EAA76C",
"0. c #EDAC6C",
"q. c #E7AC69",
"w. c #F2A866",
"e. c #F1AC6B",
"r. c #F1A56D",
"t. c #EEB067",
"y. c #F1B266",
"u. c #E3A673",
"i. c #E9AA75",
"p. c #F0AF77",
"a. c #7D8E98",
"s. c #8A8B8E",
"d. c #8D8E93",
"f. c #8C8F9B",
"g. c #818E97",
"h. c #928E93",
"j. c #928E9C",
"k. c #8E9296",
"l. c #8E949B",
"z. c #8C9699",
"x. c #939395",
"c. c #94949B",
"v. c #99949B",
"b. c #93999D",
"n. c #9A9A9C",
"m. c #989695",
"M. c #938F8E",
"N. c #BA918B",
"B. c #97A09F",
"V. c #A2A49F",
"C. c #9596A2",
"Z. c #9A96A1",
"A. c #949AA1",
"S. c #9A9CA3",
"D. c #9E9EA9",
"F. c #A49CA1",
"G. c #9AA3AA",
"H. c #A2A5AA",
"J. c #ACACAC",
"K. c #A7A6AA",
"L. c #B8AEAF",
"P. c #ACAEB2",
"I. c #B2AEB3",
"U. c #AAB3B3",
"Y. c #B4B5BB",
"T. c #BAB7B7",
"R. c #D29E82",
"E. c #CBA482",
"W. c #CBA486",
"Q. c #D3A581",
"!. c #D5AA85",
"~. c #D7AC89",
"^. c #D5AA90",
"/. c #D2B29B",
"(. c #DAB696",
"). c #D2AD8E",
"_. c #E2B480",
"`. c #DCBCA2",
"'. c #D5BBAD",
"]. c #DBBCAB",
"[. c #D4BAA3",
"{. c #C9BCB9",
"}. c #D5BEB3",
"|. c #CFB4A9",
" X c #E0BEB2",
".X c #BEC1B7",
"XX c #BDC0B9",
"oX c #DDC3AB",
"OX c #D8C0A6",
"+X c #CEC4B5",
"@X c #C3C2BD",
"#X c #CBC3BD",
"$X c #DBCAB5",
"%X c #D3C6BD",
"&X c #D4CABF",
"*X c #D7C6B8",
"=X c #DED1BE",
"-X c #E4C6AC",
";X c #E2C2B3",
":X c #E7CAB8",
">X c #BDBCC2",
",X c #C0BEC3",
"<X c #BBC2C7",
"1X c #C1C3C3",
"2X c #CCC3C1",
"3X c #C8C8C9",
"4X c #D2CAC5",
"5X c #DBCAC1",
"6X c #D3CBCB",
"7X c #D9D2CD",
"8X c #D4D3CB",
"9X c #C9CAD2",
"0X c #D4CED0",
"qX c #DCCFD2",
"wX c #D7D7D4",
"eX c #E4CDC5",
"rX c #E4D4C9",
"tX c #F6DEDA",
/* pixels */
"c.c.c.c.c.j.C.C.c.c.C.C.l.z.x.m.<X<XH.z.h.Z.v.m.S.f.d.n.S.x.k.m.",
"x.x.c.c.c.C.c.C.c.m.c.c.J.@X4X%X8X7X6X#XL.K.c.s.k.k.c.c.b.x.x.c.",
"c.c.c.c.c.c.c.j.z.H.T.{.*XeX:X].[.oX:X:X5X,XI.S.d.c.n.x.c.c.n.k.",
"C.c.c.c.c.x.x.d.B.@X7X=X`.^.R.&.*.=.=.^.oXrX0X<Xn.n.c.h.k.c.c.k.",
"c.c.k.k.d.x.m.m.@X&X$X).X.K Y o.! G d o.R.|.4X8X{.F.h.h.v.c.k.C.",
"f.c.c.x.x.n.J.T.5XOX2.K d P P C V V C U d &./.:X6XK.M.v.S.c.f.C.",
"c.C.B.m.m.V..X8X`.E.X.Z U A V a s V ) ) s L *.(.5XL.v.h.C.C.f.f.",
"f.c.b.x.s.B..XwXE.X.h V B s V ' Y C s 4 s P o.*.,XL.F.h.h.S.S.f.",
"c.h.m.G.a.U.#XoXO.n A g A M | _ [ [ s s g v @.j |.tX3Xj.j.F.j.k.",
"c.c.c.S.g.Y.{.(.O.a N B ] ^ w.[ B <.[ <.E g H j R.eX6XF.j.F.h.c.",
"n.c.x.n.f.,X}.^...a A A #./ 8.^ D 9.;.Y Z 1 - ; p '.,XF.Z.v.k.c.",
"b.n.x.c.j.0X X=.L n [ R K r *.u.{ i.i r ! h 2 < 0 |.5XI.Z.c.x.z.",
"l.A.x.c.v.qX:X&.n n ' G e 7 z 3.z 3.e , H %./ j j /.+XU.C.j.j.x.",
"l.n.x.n.n.qX-X=.Y v Z r 6 & 6 7 & q 5 & w b H r O.(.+XU.C.j.v.x.",
"l.c.k.S.b.4XoX+.E A ' j 6 @ @ $ . + @ 5 j @.;.U @.~.&XT.Z.j.v.x.",
"C.c.k.n.l.@X[.c V U p.&.9 # X . X   O 8 &.;.[ 4 L !.$X1XD.j.n.x.",
"A.x.x.c.j.qX'.R.I ^ R 2 q * * * @ = = 5 0 -.$.m I ~.5XT.Z.c.n.k.",
"l.x.c.Z.C.0X X-.n ! #.e 0 & j z u x 8 8 t -.1.M I !.*XY.C.c.n.k.",
"l.x.n.A.f.6X*XE.@.%.p.z y y 2._.4.3.y r i 8.5.S R Q.'.I.c.c.n.k.",
"c.x.c.c.d.3X'.=.3.K q.3.O.j u.q.( { m T R e.e.A I Q.{.Y.A.c.n.x.",
"A.x.x.c.z.9X+X=.l < 2 / i.%.i.6.F  .Q | [ w.<.A I !.5X1XD.h.c.c.",
"A.d.x.l.B.wX$XE.u % - f i.>.9.w.F y.` | ` :.<.) J ~.eX9XH.h.x.b.",
"c.k.c.n.z.wX$X2.q < 1 3 5.#.} w.F  .D ] U :.,.' P Q.5X3XH.d.x.b.",
"c.k.n.b.a.XX+Xc e h g f 6.;.6.w.{ e.E ] ' 9.r.o.I 2.}.,XD.x.m.z.",
"l.c.n.x.H.#XOX+.o.r n R 0.;.^ e.%.u.! ;.E ] 6.;.m *.+X@XF.M.h.Z.",
"l.c.x.x.K.4X-X4.-.G E Q 0.>.;.q.@.i.^ q.E ] E Z #.(.&X1XS.x.v.Z.",
"A.c.x.c.P.7X:X*.>.! 7.^ 9.>.$.9.R 5.( 7.} 7.5.{ T ~.5X3XK.v.v.j.",
"A.k.x.c.J.8X-X*.! R 7.E >.>.8.5.{ 7.F { F Q Q W L W.&X<XK.x.v.h.",
"z.m.m.b.K.2XoX*.R R t.Q 8.$.8.| { q.F  .W } 5.^ @.^.4XY.x.h.n.n.",
"z.M.m.x.H.#X].*.^ E y.^ 8.$.5.| D | Q t.^ ;.T G w c 2X<XS.c.n.c.",
"x.x.m.m.K.6XoX=.>.! 0.] u.;.} _ Q e.Q 5.L r 3 : ; x 4X9XH.c.c.d.",
"B.x.M.c.P.qX:X=.#.I q.;.i.;.} | ' r.' p.,.-.o.X.y ^.wX<Xb.s.m.b."
};
