/* XPM */
static char *result[] = {
/* columns rows colors chars-per-pixel */
"32 32 130 2 ",
"   c #94959A",
".  c #625963",
"X  c #696568",
"o  c #8C8395",
"O  c #B3A9BE",
"+  c #A39CAB",
"@  c #716B74",
"#  c #332A31",
"$  c #726B83",
"%  c #594B56",
"&  c #3D3535",
"*  c #43393C",
"=  c #31252A",
"-  c #23191B",
";  c #2B1F26",
":  c #62596A",
">  c #807885",
",  c #646166",
"<  c #A69EA1",
"1  c #544A54",
"2  c #5E5464",
"3  c #4D434C",
"4  c #918C91",
"5  c #B2ACB0",
"6  c #A0979C",
"7  c #676069",
"8  c #6C6272",
"9  c #574D5B",
"0  c #3A2D34",
"q  c #AAA1A6",
"w  c #B5AAAC",
"e  c #4B4042",
"r  c #625662",
"t  c #4A3C45",
"y  c #3A282E",
"u  c #92898C",
"i  c #827574",
"p  c #343132",
"a  c #453B44",
"s  c #554652",
"d  c #42343C",
"f  c #281110",
"g  c #3E323A",
"h  c #291619",
"j  c #453D4A",
"k  c #5D4D59",
"l  c #402326",
"z  c #464144",
"x  c #1C0B0B",
"c  c #8B7E94",
"v  c #A699B4",
"b  c #816162",
"n  c #3A2622",
"m  c #2B2226",
"M  c #3E3642",
"N  c #7D748B",
"B  c #B5ADC1",
"V  c #ACA1B7",
"C  c #887C88",
"Z  c #403037",
"A  c #6A686B",
"S  c #515255",
"D  c #1C1217",
"F  c #251E23",
"G  c #5E5868",
"H  c #726373",
"J  c #694426",
"K  c #362B2C",
"L  c #837C8C",
"P  c #9B96A2",
"I  c #1C181E",
"U  c #422829",
"Y  c #5E2921",
"T  c #854B21",
"R  c #604F5C",
"E  c #AA9CB7",
"W  c #B1A4BF",
"Q  c #95919B",
"!  c #160B0C",
"~  c #421915",
"^  c #471C18",
"/  c #5D351E",
"(  c #635555",
")  c #807284",
"_  c #9E92AA",
"`  c #918399",
"'  c #5A525C",
"]  c #220D0D",
"[  c #2D0F10",
"{  c #321012",
"}  c #462317",
"|  c #332327",
" . c #3A1B15",
".. c #2B150D",
"X. c #250E10",
"o. c #241314",
"O. c #AEA0BB",
"+. c #2A1A10",
"@. c #42281E",
"#. c #140706",
"$. c #4A2918",
"%. c #9B8FA3",
"&. c #96969E",
"*. c #95959D",
"=. c #94949C",
"-. c #93939B",
";. c #0D0504",
":. c #6F6F73",
">. c #171112",
",. c #7C727B",
"<. c #595356",
"1. c #3A383B",
"2. c #2C262A",
"3. c #60535D",
"4. c #888287",
"5. c #7F7A7C",
"6. c #5F6063",
"7. c #95969B",
"8. c #5F5A60",
"9. c #2D2B2D",
"0. c #949599",
"q. c #95969A",
"w. c #939496",
"e. c #949597",
"r. c #959698",
"t. c #7B7982",
"y. c #655E71",
"u. c #555358",
"i. c #969799",
"p. c white",
/* pixels */
"                                                                ",
"                                                                ",
"                                                                ",
"                              . X                               ",
"                            o O + @                             ",
"                          # $ % & * =                           ",
"                          - ; : > > .                           ",
"                        , < 1 % 2 :                             ",
"                        3 4 5 6 7 8                             ",
"                        9 0 * q w e                             ",
"                      7 r t y # u i p                           ",
"                    a 3 s % d - f e g                           ",
"                    . 1 * 0 h j k l -                           ",
"                    z a 0 x ; c v b n                           ",
"                    a # m M N B V C Z -   A X                   ",
"                  S . D F G $ N H J K 3 L V O P                 ",
"                  # t I   M a U Y T * 8 Z R E W Q               ",
"                  m @ 9   ! f ~ ^ / ( h ; ) _ E ` g             ",
"                    + ' x ] [ { { } n | j k d r r 0             ",
"                    Q |    .d t a K ..- h X.y s s #             ",
"                  K @ o...% E O.B Q o.! o.o.t s t               ",
"                  +.o. .@.1 o E E B 1 | 0 3 % Z                 ",
"                  #.+.$.| t s : ) %.: 3 1 s g                   ",
"              #.] ......z 1 g g t 9 : t Z ;                     ",
"&.&.*.*.=.-.-.;.#.      :.1 = >.0 3 H ,.,.<.=.=.=.=.=.=.=.=.=.=.",
"&.*.*.*.=.-.-.-.        S , 1.>.m ' . 2.3.4.4 5.=.=.=.=.=.=.=.=.",
"*.*.*.=.=.=.-.-.    6.S @ '     =.X ' I =.=.=.=.=.=.=.=.=.=.=.=.",
"7.7.                Q ' 8.        9.3.9.                        ",
"0.0.0.0.0.0.q.q.  o G 9.        0.I 8 S 0.0.0.0.0.0.0.0.0.0.0.0.",
"w.w.e.e.e.r.r.r.t.G             e.e.y.L e.e.e.e.e.e.e.e.e.e.e.e.",
"w.w.w.e.r.r.r.>.u.2.            e.e.e.8 :.9.;.e.e.e.e.e.e.e.e.e.",
"w.w.w.e.r.r.i.x >.              e.e.e.e., m e.e.e.e.e.e.e.e.e.e."
};
