/* XPM */
static char *result[] = {
/* columns rows colors chars-per-pixel */
"32 32 72 1 ",
"  c #151517",
". c #171719",
"X c #1A1A1D",
"o c #1E1D21",
"O c #232326",
"+ c #262629",
"@ c #28272C",
"# c #2B2B2D",
"$ c #2E2D31",
"% c #323235",
"& c #363639",
"* c #38373C",
"= c #3A3A3D",
"- c #3E3D41",
"; c #403F45",
": c #434344",
"> c #454549",
", c #48474D",
"< c #4B4B4D",
"1 c #4E4D51",
"2 c #535255",
"3 c #565559",
"4 c #5B5B5D",
"5 c #5E5E61",
"6 c #605F64",
"7 c #646466",
"8 c #666569",
"9 c #6A6A6D",
"0 c #6E6E71",
"q c #706F74",
"w c #727274",
"e c #767679",
"r c #7A7A7D",
"t c #7E7E82",
"y c #828285",
"u c #86858A",
"i c #88878D",
"p c #8A898C",
"a c #8D8C91",
"s c #908F95",
"d c #929196",
"f c #95949A",
"g c #98979D",
"h c #9A999D",
"j c #9997A2",
"k c #9C9CA1",
"l c #A09FA4",
"z c #A2A1A4",
"x c #A5A4A9",
"c c #A8A7AC",
"v c #AAAAAC",
"b c #AEADB2",
"n c #B4B4B6",
"m c #B6B6B9",
"M c #BBBBBD",
"N c #BFBFC1",
"B c #C2C2C4",
"V c #C6C6C9",
"C c #CBCBCD",
"Z c #CECED1",
"A c #D3D3D5",
"S c #D6D6D8",
"D c #DBDBDD",
"F c #DEDEE1",
"G c #E3E3E5",
"H c #E6E6E8",
"J c #EBEBED",
"K c #EEEEF0",
"L c #F2F2F5",
"P c #F7F7F9",
"I c #FAFAFC",
"U c None",
/* pixels */
"fjffjfffub5XaLSDDDFFDDDFFSFDASSH",
"jffjfjjjhg2%jFZKGFDFFFDDFASHHHHS",
"sfsfsssdsrUUkLDCSSSFHHGFGDAJDSHn",
"jjjkjhhhbrUU0DLKHGFGFDAASFAGZALz",
"ttyiadffsUUUUUhAASSSSFKIFKFHSFF8",
"@$%=;UUUUUUUUU%:><1128pkNCBSGJV<",
"-&&UUUUUUUUUU:&+#$@Ooo@$$$*20t8$",
"mckpeUUUUUUU=&#:125542>--@$$++O=",
"NVVVVBNNUUUU##9yfgggggddte062%o>",
"NNNNNNNNVCNU&&yzffgggfgskjljf9$%",
"BNNNNNNNMCAe+%yhdffgfgffgfffjt-@",
"NNNNNNNNMmVt+=rgsdfdfdfgffauja,*",
"NNNNBNNNCmVa%*0hdddffffffkjjxs,$",
"NNNNNNNNNmCs@$4kfffdffffasfsku-$",
"NNNNNNVNMNAa@&3xhfgdffffffssju,-",
"BBNNNBVCMBVtO->ihhgffffffssflt-$",
"74<<<4pMMZv:%%=<rhhhzhzhzzzhr2=%",
"#+##&==&94= ==#%*<<379ww954<-$$&",
"pr4=+#&##2w77%##%$#$%%####+##+#$",
"CBMp<#%:hBSBNvy:=%<577573459q086",
"MMCMwO#7CBMvVZN4$%wdhzzcljffhllj",
"CMMBp%=hCMNCVMAp#%yzahpdhffsdhhd",
"NMMCv=%hCnnVVmV4#&azpzddssfjfjfa",
"NBNBz&%vVBVNnMS4$%ahyzhdsgfsfjjj",
"CMnBh%%zAnBVnCn2#-dafgphhhjfsfff",
"nnBAh##yVMBNMSv=%<vdhgghasffjfff",
"MBBv9#%4BVMvnCh=%:zpdahdfghhjjff",
"ACv7%#=#dMZZSBwo-:ufgzzhfsaiafjl",
"r92=%::%%2wpdr2&%#<truww632136ey",
"+UU&%#O%%%#OO .$#Oo===O$++OOO#%-",
"UUU=%::22249eyphty4O%+=<1<>>>>;>",
"JIUU:zSGJGFFHPLGJJnUU%rhhfdddfkk"
};
